<svg version="1.1" xmlns="http://www.w3.org/2000/svg" xmlns:xlink="http://www.w3.org/1999/xlink">
<defs>
<symbol id="flag-de" viewBox="0 0 32 32">
<path fill="#ffda44" style="fill: var(--color1, #ffda44)" d="M0.995 21.565c2.261 6.093 8.125 10.435 15.005 10.435s12.744-4.342 15.005-10.435l-15.005-1.391-15.005 1.391z"></path>
<path fill="#000" style="fill: var(--color2, #000)" d="M16 0c-6.879 0-12.744 4.342-15.005 10.435l15.005 1.391 15.005-1.391c-2.261-6.093-8.125-10.435-15.005-10.435z"></path>
<path fill="#d80027" style="fill: var(--color3, #d80027)" d="M0.995 10.435c-0.643 1.733-0.995 3.608-0.995 5.565s0.352 3.832 0.995 5.565h30.010c0.643-1.733 0.995-3.608 0.995-5.565s-0.352-3.832-0.995-5.565h-30.010z"></path>
</symbol>
<symbol id="flag-fr" viewBox="0 0 32 32">
<path fill="#f0f0f0" style="fill: var(--color4, #f0f0f0)" d="M32 16c0 8.837-7.163 16-16 16s-16-7.163-16-16c0-8.837 7.163-16 16-16s16 7.163 16 16z"></path>
<path fill="#d80027" style="fill: var(--color3, #d80027)" d="M32 16c0-6.879-4.342-12.744-10.435-15.005v30.010c6.093-2.261 10.435-8.125 10.435-15.005z"></path>
<path fill="#0052b4" style="fill: var(--color5, #0052b4)" d="M0 16c0 6.879 4.342 12.744 10.435 15.005v-30.010c-6.093 2.261-10.435 8.125-10.435 15.005z"></path>
</symbol>
<symbol id="flag-it" viewBox="0 0 32 32">
<path fill="#f0f0f0" style="fill: var(--color4, #f0f0f0)" d="M32 16c0 8.837-7.163 16-16 16s-16-7.163-16-16c0-8.837 7.163-16 16-16s16 7.163 16 16z"></path>
<path fill="#d80027" style="fill: var(--color3, #d80027)" d="M32 16c0-6.879-4.342-12.744-10.435-15.005v30.010c6.093-2.261 10.435-8.125 10.435-15.005z"></path>
<path fill="#6da544" style="fill: var(--color6, #6da544)" d="M0 16c0 6.879 4.342 12.744 10.435 15.005v-30.010c-6.093 2.261-10.435 8.125-10.435 15.005z"></path>
</symbol>
<symbol id="flag-en" viewBox="0 0 32 32">
<path fill="#f0f0f0" style="fill: var(--color4, #f0f0f0)" d="M32 16c0 8.837-7.163 16-16 16s-16-7.163-16-16c0-8.837 7.163-16 16-16s16 7.163 16 16z"></path>
<path fill="#0052b4" style="fill: var(--color5, #0052b4)" d="M3.308 6.259c-1.257 1.635-2.204 3.52-2.756 5.567h8.324l-5.567-5.567z"></path>
<path fill="#0052b4" style="fill: var(--color5, #0052b4)" d="M31.449 11.826c-0.552-2.047-1.5-3.932-2.756-5.567l-5.567 5.567h8.323z"></path>
<path fill="#0052b4" style="fill: var(--color5, #0052b4)" d="M0.551 20.174c0.552 2.047 1.5 3.932 2.756 5.567l5.567-5.567h-8.323z"></path>
<path fill="#0052b4" style="fill: var(--color5, #0052b4)" d="M25.741 3.308c-1.635-1.257-3.52-2.204-5.567-2.756v8.324l5.567-5.567z"></path>
<path fill="#0052b4" style="fill: var(--color5, #0052b4)" d="M6.259 28.692c1.635 1.257 3.52 2.204 5.567 2.756v-8.323l-5.567 5.567z"></path>
<path fill="#0052b4" style="fill: var(--color5, #0052b4)" d="M11.826 0.551c-2.047 0.552-3.932 1.5-5.567 2.756l5.567 5.567v-8.323z"></path>
<path fill="#0052b4" style="fill: var(--color5, #0052b4)" d="M20.174 31.449c2.047-0.552 3.932-1.5 5.567-2.756l-5.567-5.567v8.323z"></path>
<path fill="#0052b4" style="fill: var(--color5, #0052b4)" d="M23.125 20.174l5.567 5.567c1.257-1.635 2.204-3.52 2.756-5.567h-8.323z"></path>
<path fill="#d80027" style="fill: var(--color3, #d80027)" d="M31.865 13.913h-13.778v-13.778c-0.683-0.089-1.38-0.135-2.087-0.135s-1.404 0.046-2.087 0.135v13.778h-13.778c-0.089 0.683-0.135 1.38-0.135 2.087s0.046 1.404 0.135 2.087h13.778v13.778c0.683 0.089 1.38 0.135 2.087 0.135s1.404-0.046 2.087-0.135v-13.778h13.778c0.089-0.683 0.135-1.38 0.135-2.087s-0.047-1.404-0.135-2.087z"></path>
<path fill="#d80027" style="fill: var(--color3, #d80027)" d="M20.174 20.174v0l7.14 7.14c0.328-0.328 0.642-0.671 0.941-1.027l-6.113-6.113-1.968 0z"></path>
<path fill="#d80027" style="fill: var(--color3, #d80027)" d="M11.826 20.174h-0l-7.14 7.14c0.328 0.328 0.671 0.642 1.027 0.941l6.113-6.113v-1.967z"></path>
<path fill="#d80027" style="fill: var(--color3, #d80027)" d="M11.826 11.826v-0l-7.14-7.14c-0.328 0.328-0.642 0.671-0.941 1.027l6.113 6.113h1.968z"></path>
<path fill="#d80027" style="fill: var(--color3, #d80027)" d="M20.174 11.826v0l7.14-7.14c-0.328-0.328-0.671-0.642-1.027-0.94l-6.113 6.113v1.968z"></path>
</symbol>
</defs>
<defs>
  <symbol id="vip" viewBox="0 0 400 390">
    <path d="M60 0l3 3-1-1-1-2h-1m104 0l2 3 4 4 2 2 1 1h1l1 1 1 1 1 1 1 1v1h2v-1l-1-1v-1h-1l-1-1-2-1-2-1V8l-1-1-1-1h-1l-1-1-1-1-1-1-1-1h-1l-1-1V0m180 1l-1 1-1 1-1 1-1 1-1 1 1-1 1-1h1l1-1 1-1h1a3 3 0 0 1-1-1c0-1 0-1 0 0M238 1v1h1l1-1s1 0 0 0h-2M66 6l1 1 1 2c0 1 0 1 0 0l-1-2-1-1m269 3l-1 1v1l-1 1v0l1-1 1-1c0-1 0 0 0 0l1-1h-1M79 21c0 1 2 2 4 1v1l1 1 1 2h1l1 1 1 1a1 1 0 0 0 1 1 1 1 0 0 1 1 1 2 2 0 0 0 1 1l1 1h1l1 1 1 1 1 1v0l-1-1-4-4-3-3-2-2-2-1-1-1-1-1-1-1-1-1-1 1m139 2l-1 1c-1 1-1 1 0 0a9 9 0 0 1 1-1c1-1 1-1 0 0m100 2v3-1l1-2h-1m-107 5h-1l2-2-1 2m-16 1l3 3 2 1-6-5 1 1m13 1h1l1-1-2 1m-2 2v0l1-1c1 0 1 0 0 0l-1 1m-2 2l-1 1-1 1 2-2 1-1-1 1M98 37l2 2 2 2-4-4c0-1 0-1 0 0m5 5l2 1h-1a2 2 0 0 1-1-1v-1 1m3 3l1 1c0 1 0 1 0 0v-1h-1m192 1l-1 1-1 1-1 1c-1 0-2 1-1 2v-1l1-1 1-1 1-1v1 0l1-1h1v-2l-1 1m-6 5l-1 1c-1 0-1 0 0 0l1-1v-1 1m-2 2v1l-2 1v1l1-1 1-1v-1c0-1 0 0 0 0m-4 4c-1 1-1 1 0 0h0m-168 2l2 1h2l1 1 1 1 1 1 1 1 1 1 1 1h1v1l1 1 1 1c1 2 0 3-1 3h-2v18l1 19 10-5 2-1h1V88l1-1c2-2 6-2 6 0v1c2 0-10-13-14-15l-3-4-1-1-3-3-3-3h-1l-1-1-1-1-1-1-1-1h-1l-1 1m165 0l-1 2-1 1 1-1 1-1 1-1h-1m-4 4v1l1-1v-1l-1 1m-5 6l-20 1h-17l1 1a191 191 0 0 0 15 15l-51 1h-51 105c2-1 2 0 2 8v8l3 1 2 1 1 1 2 1 2 1c4 3 4 3 4-19l1-19 1-1c1-2 1-2 0 0m-85 61l-8 1-5 1-4 1-4 1h-1l-3 1-2 1-3 1a31 31 0 0 0-8 3l-4 2a51 51 0 0 1-3 2l-4 2a168 168 0 0 0-14 10l-2 2a176 176 0 0 0-18 19 56 56 0 0 1-2 3l-1 1v1l-2 2-2 4-3 5-1 2-3 6a10 10 0 0 1-1 2v3l-1 1-1 3-1 3-1 4-1 3-1 6-1 5v28l1 7a117 117 0 0 0 13 36l1 3 4 6 2 3 3 3 2 3 17 17 3 2 7 5 2 1 3 2 4 2 2 1 2 1 2 1 2 1 9 3a69 69 0 0 0 13 4l6 1 6 1a132 132 0 0 0 49-6 39 39 0 0 0 10-4l3-1 2-1 2-1 4-2 11-7 2-1a121 121 0 0 0 32-39l4-6 1-3v-2l1-3 1-2 1-3 1-3 1-4 1-3 1-5 1-5a180 180 0 0 0-2-41l-1-3-1-3-1-3-3-8-1-3v-2h-1a34 34 0 0 0-4-8 87 87 0 0 0-16-22l-10-10-3-3a77 77 0 0 0-8-6 82 82 0 0 1-9-5l-4-3-2-1h-2l-2-1-2-1-3-1-2-1-3-1-3-1-9-2-5-1c-5-2-18-2-30-1m12 15l2 4 1 3v2l1 3 3 8 1 2 1 3 1 3 1 3v2l1 3 1 3 1 3 1 2 3 8 1 3v2l4 11 1 1h75l-2 3-1 1-4 3a119 119 0 0 0-16 11l-1 1a97 97 0 0 0-9 6l-2 2-3 2a43 43 0 0 1-5 3l-1 1-3 2-3 3-3 2-1 1a80 80 0 0 0-3 2l-1 1-3 3 1 3 1 3 1 2v3l1 3 1 3 1 3 1 4 1 2 1 2 1 3 1 3 1 3 1 3v1l1 4 1 3 1 2 1 3a69 69 0 0 0 4 11l1 3c1 4 1 5-3 3l-10-9-5-3-2-1-4-3-4-3-2-2-1-1-4-2-5-4-2-1a23 23 0 0 0-1-2l-5-3-5-4-9-5-7 6a182 182 0 0 1-6 4l-4 3-7 5-2 2c-1 2-3 2-3 2h-1l-2 2a177 177 0 0 0-14 10 139 139 0 0 0-11 8l-1 1c-3 2-3 0-1-5a164 164 0 0 0 7-21l1-2v-2l1-3 1-3 1-3 1-2 1-3 1-3 1-3 1-3 1-3 1-3v-2l1-3 2-6c1-1 0-1-1-2a231 231 0 0 1-4-3l-3-3a109 109 0 0 1-6-4l-3-2-3-2-3-2-2-2a15 15 0 0 0-2-1l-4-3-2-2h-1l-6-5h-1l-2-1-1-1-2-1-2-2-2-2-1-1-2-1-1-1-3-2a10 10 0 0 0-2-1l-1-2-1-1h76v-2l2-4 1-3 1-3 1-3 1-2v-3l1-3 1-2 1-2 1-3 1-3 1-2 1-3 1-3v-3a4 4 0 0 1 1-2l1-3 1-2 1-5 2-6 1-4 1-2 1-2 1-2 1 3" fill="#fcb34b"/>
    <path d="M239 0l1 1 1-1h-2m105 1l1 1 1-1-1-1-1 1M173 9l1 1 1-1h-2M81 23h0m2 1v1h1v1l1 1v-1l-1-2h-1m213 24h1v1c1-1 0-2-1-2v1M120 60l1 1v-1 1l1 1 2 1h1l-1-1-1-1-1-1h-1-1m8 9c0 1 0 2-2 2v41l-2-1h-2c1 2-1 3-2 2v1l-2 2h-1l-2 1h-1l-2 2a1 1 0 0 0-1 1h-1l-1 1-1 2-1 1h-1l-1 1-3 1-2 1c0 2-2 5-3 5a137 137 0 0 0-11 11l-5 4c-2 0-2 0-2 2v2l-1 1-1 2-2 1-1 1v2l-1 1-2 1v1l-1 2-1 2-1 1-1 1c1 1 0 2-1 2l-1 1c1 2 0 2-1 2l-1 2v2l-1 1-1 2c-2 0-2 0-1 3l-1 1-1 2c1 1 0 2-1 2v1c1 2 0 4-2 4v2c1 1 0 3-2 3v5h-1l-1 1c1 3 0 6-1 6v2l-2 6-1 2c1 4 1 10-1 10v34c2 0 3 6 2 7v5c1 0 2 1 1 5l1 3c1 0 2 2 1 3-1 2 0 4 1 4s2 2 1 4v1c2 0 3 4 2 4-1 1-1 1 1 1v3l1 2c1 0 2 2 1 3l1 1c1 0 2 2 1 3l1 1 1 2c-1 1 0 1 1 1l1 2v2l2 2v1l2 1 1 2v1 1l2 2 1 1v2l1 1 2 1 1 2v1c-1 1 0 2 1 2l1 1h1l1 1 2 2 1 3 1 1v1l1 2 1 1 1 1 1 1 1 1 1 1h1l1 1 1 1 1 1v1l1 1 2 1h2l1 1 1 1h1l3 4 1 1v1c0 1 0 1 0 0h2l2 1 2 1v1c0 2 0 2 2 1l4 3h1l2 2h1l2 1 2 1 1 1h2l1 1 2 1 2 1 2 1 2 1 2 1 2 1c0 2 0 2 2 1 1-1 3 0 3 1l2 1c2-1 3 0 3 1h3c1 0 3 0 3 2h1c1-1 5 0 5 1l3 1c5-1 7 0 7 1l1 1h13l24 1c0-1 10-2 11-1s3 0 3-1 2-2 7-1l3-1c0-1 4-2 5-1h1l3-2h3l2-2h3c0-1 3-2 4-1l1-1 2-1c2 1 2 0 2-1s3-2 4-1c0 1 0 1 0 0 0-2 3-3 3-1l1-1 1-2h2l1-1 2-1 2-1h1l2-2h1l1-2 2-1h2l1-1 1-1 1-1 2-1c1 2 2 0 3-1l1-3 1-1 1-1h1l1-1 1-1h2l2-1 1-1 1-1 1-1v-1l1-1h1l1-1 1-1 1-1 1-1 1-1 1-2v-2l1-1 1-1v-1l1-1 1-1 2-1h1l1-1v-2-2l1-1 2-1 1-1v-2l1-1 1-1c2-1 2-1 1-2l1-1v-2l1-1 1-1c0-2 1-2 2-2v-2c0-1 0-2 2-2 0 0 1 0 0 0l1-3c2 0 2-1 1-2s0-2 1-2l1-1c-1 0-1-3 1-3l1-3c-1-1 0-2 1-2s1 0 0 0c0-3 0-5 2-5 0 0 1 0 0 0-1-3 0-5 1-5s2-3 1-4 0-3 1-3 2-3 1-4 0-4 1-4l1-3c-1-6-1-9 1-9v-27-7c-2 0-2-5-1-10l-1-2c-1 0-2-5-1-6s0-2-1-2-2-4-1-5l-1-2-1-3v-2c-2 0-2-1-2-4v-1c-2 0-3-3-1-4l-1-1c-1-1-2-2-1-3s0-1-1-1l-1-2-1-2v-2l-1-1-1-2-1-2c-1 0-2 0-1-1v-2c-2 0-2 0-2-2l-1-1c-1 0-3-3-2-5l-1-1h-2l-1-2v-2-1l-2-1-1-1-1-2h-1v-4h-2l-3-2-3-3-2-3h-1a2 2 0 0 1-1-1v-1l-1-1-1-1-2-2-4-3-1-2v-1-1h-2l-2-1-1-1h-1l-2-1-1-2-1-1h-1a1 1 0 0 0-1-1l-2-2h-1l-2-1h-1l-2-2v-1c-1 1-2 0-2-1l-2-1-1 1V91c0-21 0-22-2-21l-1 19c0 22 0 22-4 19l-2-1-2-1-1-1-2-1-3-1v-8c0-8 0-9-2-8h-4l3 1v7c0 7 0 7-3 6l-2-1v-1h-4l-1-1-1-1c-1 2-5 1-5-1h-4c-2 0-4 0-4-2h-3c-2 1-7 0-7-1s-4-2-5-1a267 267 0 0 1-37 1c0 1-6 2-7 1h-3c0 2-2 2-4 2h-4c0 2-4 3-5 1l-1 1-4 1-2 1c0 1-1 2-3 2l-1-8v-6h2l2-1c0-2-4-2-6 0l-1 1v15h-1l-2 1-10 5-1-19V72h2l1-2c1 0 0-1 0 0l-2-1h-1m82 61a67 67 0 0 1 14 2l9 2 3 1 3 1 2 1 3 1 2 1 2 1h2l2 1 4 3 4 2a83 83 0 0 0 7 4l2 2 4 3 3 3a148 148 0 0 1 20 22 88 88 0 0 1 10 18h1v2l1 3 3 8 1 3 1 3 1 3 1 5 1 7a180 180 0 0 1-2 39l-1 3-1 4-1 3-1 3-1 2-1 3v2l-1 3-4 6-3 6-1 2-1 1-4 6-1 2-3 3-19 19-2 1a88 88 0 0 1-15 9l-2 1-2 1-3 1-1 1-9 3-5 2-4 1-4 1a132 132 0 0 1-51-1l-10-3-9-3-2-1-2-1-2-1-2-1-4-2-3-2-2-1-7-5-3-2a128 128 0 0 1-22-23l-2-3a114 114 0 0 1-18-45l-1-7a217 217 0 0 1 2-39l1-3 1-4 1-3 1-3 1-1v-3a10 10 0 0 0 1-2l3-6 1-2 3-5 2-4 2-2v-1l1-1a56 56 0 0 0 2-3l7-8 11-11 2-2 4-3 1-1a168 168 0 0 1 13-8 51 51 0 0 0 3-2l4-2h1l7-3 3-1 2-1 3-1h1l4-1 4-1 5-1c6-2 18-2 29-1m-10 12l-1 2-1 2-1 2-1 4-2 6-1 5-1 2-1 3a4 4 0 0 0-1 2v3l-1 3-1 3-1 2-1 3-1 3-1 2-1 2-1 3v3l-1 2-1 3-1 3-1 3-2 4v2h-76l1 1 1 2a10 10 0 0 1 2 1l3 2 1 1 2 1 1 1a177 177 0 0 0 17 12l2 2 4 3a15 15 0 0 1 2 1l2 2 3 2 3 2 3 2 2 2 2 1 2 1 3 3 4 3c1 1 2 1 1 2a119 119 0 0 1-3 11l-1 3-1 3-1 3-1 3-1 3-1 3-1 2-1 3-1 3-1 3v2l-1 2-1 3-1 3-1 3-4 12c-2 5-2 7 1 5l1-1 2-1 1-1a139 139 0 0 1 15-11 185 185 0 0 1 15-11l7-5 4-3a182 182 0 0 0 6-4l7-6 9 5 5 4 5 3a23 23 0 0 1 1 2l2 1a243 243 0 0 0 20 15l2 1 5 3 11 9c3 2 3 1 2-3l-1-3-1-3-3-8-1-3-1-2-1-3-1-4v-1l-1-3-1-3-1-3-1-3-1-2-1-2-1-4-1-3-1-3-1-3v-3l-1-2-1-3-1-3 3-3 1-1a80 80 0 0 1 3-2l1-1 3-2 3-3 3-2 1-1 2-1 3-2 3-2a116 116 0 0 0 2-2l1-1 3-1a97 97 0 0 1 6-5l5-4 5-3a119 119 0 0 1 11-8l2-3h-75l-1-1a61 61 0 0 1-4-13l-1-3-3-8-1-2-1-3-1-3-1-3v-2l-1-3-1-3-1-3-1-2-3-8-1-3v-2l-1-3-3-7" fill="#fcd35b"/>
    <path d="M61 0l3 4c3 3 4 4 4 6l2 2 1 1 1 1 1 1 1 1 1 1 1 1v1h1l1 1h1l2 1 1 1 1 1 1 1 2 1 2 2 3 3 4 4 4 3 4 4v1a2 2 0 0 0 1 1h1l1 1 1 3 2 2 1 1v1l1 1h1l1 1 1 1 1 1 1 1v1l2 1h2l1 1 2 1v1l1 1h1l3 3 3 3 1 1 3 4 15 14h52l51-1-1-1-14-14-1-1h17c20 0 18 1 23-5l5-5 4-3 4-3v-1l1-1 1-1 1-1 1-1 1-1h1l1-1 1-1 1-1 2-1h1l1-1v-1h1l1-1 1-1 1-1 1-1v-1l1-1h1l1-1 1-1 1-1 1-1 1-1 1-1v-1l1-1h1v-1l7-7 3-4 4-3 1-1 1-1a1 1 0 0 0 0-1l1-1 1-1h1l2-2 2-2 1-1 1-1 1-1V0h-52l-51 1h-1l-1 1-2 1-1 1h-2v1l-1 1-1 1-1 1-1 1-1 1-1 1v1l-1 1-1 1h-1l-1 1-1 1-1 1v1l-1 1v1l-5 5-1 1-1 1a2 2 0 0 0-1 1l-3 3-3 3-3 2-2 2-8-9-1-1v-1l-1-1-1-1-1-1-1-1-1-1c-1 0 0 0 0 0l-1-2h-1l-1-1-1-1-1-1a1 1 0 0 1-1-1l-1-1h-3v-1l-1-1-1-1-1-1-1-1h-1l-1-1-2-2-4-4-2-2-52-1H61" fill="#fb735c"/>
    <path d="M58 1l1 2 1 1h1l1 1v1l1 1 1 1 1 1 1 1c2 0 2-2 0-3l-4-4-2-2-1-1-1 1m106 0l1 1h1l1 1 1 1h2l-1-1-1-1-1-1-1-1h-1l-1 1m178 3h-1l-1 1v1l-1 1-1 1-1 1-1 1h-1l-1 1-1 1-1 1-1 1-1 1-1 1h-1v1l-1 1-1 1-1 1a2 2 0 0 0-1 1l-1 1-5 5 2 1 1-1 1-1 1-1 1-1v-1l1-1 1-1 1-1h1l1-1 1-1 1-1 1-1v-1l1-1 1-1 1-1h1l1-1 1-1 1-1 1-1V7l1-1 1-1 1-1h1l-1-1-1 1M170 5l1 1 1 1 1 1V7l-1-1V5h-2m48 15h-1l-1 1-1 1-1 1v1l-2 1v1l-1 1-1 1-1 1-1 1h-1l-1 1v1l-1 1-1 1-1 1-1-1-1-1-1-1-1-1-1-1h-1l-1-1-1-1-1 1v1h1l1 1 2 2 3 3h3l1-1 1-1 1-1h1v-1l3-2 2-2v-1l1-1h1l1-1 2-2c3-3 3-4 1-4l-1 1M85 26v2h1l1 1 1 1 1 1 1 1 1 1 1 1 1 1 1 1 1 1 1 1 1 1 1 1 1 1 1 1v1l1 1h1l1 1 1 1c0 1 3 2 3 0l-7-7-1-1c-1-1 0 0 0 0l-2-2-2-2-1-1-1-1-1-1a1 1 0 0 0-1 0l-1-1-1-1a2 2 0 0 1-1-1l-1-1-1-1h-1m209 24h2l-1-1-1 1m-2 2h-1l-1 1v1l-1 1-1 1h-1l-1 2h-1l-1 1-1 1-1 1-1 1-1 1c-1 1 0 0 0 0l-1 1-5 5c0 2 2 2 2 0l1-1h1l1-1 1-1 1-1 1-1 1-1 1-1v-1l1-1h1l1-1 1-1 1-1 1-1 1-1 1-1v-1l1-1c2 0 2-1 0-1l-1 1M124 64l1 1 1 1v1l1 1h-1v3c2 0 2-1 2-2h1l1 1c2 1 2-1 0-2l-1-1-1-1h-1l-1-1v-1l-2-1v1m27 23l-1 2v1h105v-1l-2-1-102-1m33 4l16 1 16-1v-1h-16l-16 1m-12 2c0 1 1 2 5 1l2-1c0-2-7-2-7 0m49 0l3 1c3 1 4 0 4-1v-1h-3l-4 1m-57 1c0 2 4 2 5 0h-5m67 0c1 2 5 2 5 0h-5m-75 2c0 2 1 2 4 2 3-1 2-3-2-3h-2v1m83 0l2 2c3 0 3 0 3-2v-1h-2l-3 1m-89 2c1 2 5 2 5 0l-2-1h-3v1m95 0c0 1 1 2 3 2s2 0 2-2v-1h-3l-2 1m-100 2c0 2 1 2 3 1s2-2-1-2h-2v1m105 0c0 2 5 2 5 0v-1h-2l-3 1m-126 10v1h2l-1-1h-1m150 1h2c1 0 1-1-1-1l-1 1m-154 1c0 2 2 2 2 1 1-2 1-2-1-2l-1 1m158 0l1 1 1-1-1-1-1 1m-161 1l-1 1v1l-1 1h3l2-2-3-1m163 1l2 2h3l-1-1v-1l-2-1-2 1m-169 3l-1 1v1c0 2 1 2 1 1a1 1 0 0 1 1-1l2-2-1-1-2 1m175 0l2 2a1 1 0 0 1 1 1l2-1-1-1-1-1-2-1-1 1m-180 4l-1 1-1 1-1 1-1 1h3l1-1h1l1-1c1-1 1-3-1-3l-1 1m185 0l1 2 2 1h1l1 1 1 1 1-1-1-1-1-1-1-1-1-1h-3m-194 7l-1 1-1 1-1 1v1h-1l-1 1-1 1-1 1-1 1-1 1-1 1-1 1-1 1-1 1v1h-1l-1 1-1 2 1 1 4-3v-1h1a139 139 0 0 1 13-14l-1-1-2 1m203 0l1 2 4 3 2 2 1 1 1 1v1a2 2 0 0 0 1 1h1l2 3 3 3c2 2 3 2 3 0l-1-2-1-1h-1v-1l-1-1-1-1-1-1-1-1-1-1-1-1-1-1-1-1v-1h-1l-1-1-1-1-1-1-1-1-1-1-2 1M78 149l-1 1-1 1-1 1-1 2c0 2 1 2 3 0l1-2 1-1c1-1 1-2-1-3v1m243 0v2h1l1 2 1 1 2 1c1 0 1-3-1-3l-1-1v-1h-1l-2-1m-249 8l-1 1-1 1c0 2 2 2 3 0l1-1c1-1 0-2-1-2l-1 1m254-1v2l1 1c1 2 3 2 3 0l-1-1-1-1c0-2-2-2-2-1m-257 5l-1 1v1l-1 1 1 2 2-2v-1c1-1 0-3-1-2m260 1l3 4 1-2-1-1v-1c0-2-2-2-3 0m-264 6l1 1c1 0 2-1 1-2 0-1-2-1-2 1m268-1l1 2 1-1c0-2-1-2-2-1m-270 4l1 1c1 0 2 0 1-1 0-2-2-1-2 0m272 0c-1 1 0 1 1 1l1-1c0-1-1-2-2 0m-273 4l1 1v-2c0-1-1-1-1 1m275-1c-1 1 0 2 1 2l1-1c0-2-2-2-2-1m-277 4l1 1 1-1-1-1-1 1m279-1v2l1-1-1-1m-281 5l1 1 1-2c-1-1-2-1-2 1m282-1l1 2 1-1c0-2-1-2-2-1m-284 3v2c0 1 2 2 2 0 1-1-1-3-2-2m286 0v3l2-1c0-2-1-3-2-2m-288 6c0 2 2 3 3 0 0-1 0-2-2-2l-1 2m289-2c0 1 0 4 2 4l1-2c0-2-1-3-3-2m-290 5l-1 2c0 2 2 3 3 1s-1-4-2-3m292 1c0 1 0 3 2 3l1-2c0-3-2-3-3-1m-294 6l1 2c2 0 2-3 0-4l-1 2m296-1l1 3 1-2c0-2-2-3-2-1m-298 7l1 3c2-1 2-5 0-5l-1 2m300-2c-1 1 0 5 1 5l1-3c0-3-1-3-2-2M47 214c0 4 2 4 3 1 0-3 0-4-2-4h-1v3m304-3c-1 2 0 6 1 6l1-3c0-3-1-5-2-3M46 224v5c1 0 2-1 2-4l-1-5h-1v4m306-4v4l2 5 1-5v-4h-3M44 245v10h1l1-10-1-9h-1v9m310-9v18l1 1h1v-19h-1-1M46 267v4c2 0 3-7 1-8l-1 4m307-3c-1 4-1 7 1 7l1-4v-4h-1l-1 1M47 277v3h1c2 0 2-5 0-5l-1 2m304-1c-1 2 0 4 1 4l1-3c0-2-1-3-2-1m-302 9l1 2c2 0 2-4 0-4l-1 2m300-1c-1 2 0 3 1 3 2 0 2-4 0-4l-1 1m-298 8l1 2c1 0 2-1 1-3-1-3-2-2-2 1m296-2c-1 2 0 4 1 4l1-2c0-3-1-3-2-2m-295 7v3h2c2-1 2-5-1-5l-1 2m293-1v3c0 2 3 1 3-2 0-2-2-3-3-1m-291 6c0 1 2 2 2 0 1-1 1-2-1-2l-1 2m289-1l2 2 1-1c0-2-2-2-3-1m-287 6l1 1c2 0 2-3 0-3l-1 2m286-1c-1 1 0 2 1 2l1-1c0-3-2-3-2-1m-284 4l1 2c2 0 2-3 0-3l-1 1m282-1c-1 1 0 3 1 3l1-2c0-1-1-2-2-1m-280 5c0 2 1 2 2 1l-1-2-1 1m278-1l1 3 1-2c0-1-1-2-2-1m0 3c-2 0-2 1-2 2l3 1-1-3m-276 2v1c2 0 2-3 1-3l-1 2m1 3l1 2 1 2 1 1 1 1 1 1 1-2-1-2-2-1v-1l-2-2-1 1m272-1l-1 2v1l-2 1a4 4 0 0 1 0 2v2l1-1 1-1 1-1 1-2 1-2c0-1-1-2-2-1M68 330l1 2h1l1 1c1 0 2-1 1-2l-1-1-2-2-1 2m261-1v1l-1 1c-1 1 0 2 1 2l1-1h1l1-2c0-2-2-2-3-1m-257 6l1 2 1 1h2v-1l-1-2c-1-2-3-1-3 0m254-1l-1 1v1l-1 2h2l1-1 1-2c0-1-1-2-2-1m-248 9v1l1 1 1 1 1 1 1 1h1l1 1 1-1h-1l-1-1-1-3-2-2c-1-1-2-1-2 1m242-1l-1 1-1 1v1l-1 1-1 1v2l1-1h1l1-1 1-1 1-1 1-1 1-1c0-2-2-2-3-1M97 363l1 1h1l1 1v1l1 1 1 1 2 1 1-1-3-4h-1l-1-1-1-1h-1l-1 1m204-1l-1 1-1 1h-1l-1 1-1 1c-2 1-2 3 0 3l2-1 1-1 1-1v-1l1-1h1l1-1-1-1h-1m-193 8c-1 1 0 2 1 2l1 1 1 1c2 0 2-2 0-2l-1-1-2-1m182 1l-1 1c-2 0-2 2 0 2l2-1 1-1v-1c0-1-1-2-2 0m-177 3l1 2 1 1 1 1c3 0 3-2 0-3-2-1-2-2-3-1m172 0l-2 1c-1 1-1 2 1 3l1-1 1-1 1-1c0-1-1-2-2-1m-166 3c-1 1-1 3 1 3l1-1c0-2-2-2-2-2m160 0l1 3 2-2-3-1m-157 2l1 2 1 1 1 1 2 1 2 1 2 1 2 1 1 1h4c0-2-1-2-2-2l-2-1-2-1-1-1-2-1h-2l-1-1-2-1-2-1m154 1l-2 1-1 1h-2c-2 1-2 3 0 3l2-1 2-1 1-1 1-1 1-1h-2m-10 4c-1 2 0 3 2 3l1-2c0-1-1-2-3-1m-3 2c-2 1-1 2 1 2l2-1c0-2-1-2-3-1m-123 2c-1 1 0 2 1 2l1-1-2-1m118 0c-1 1 0 2 1 2l1-1-2-1m-114 2c-2 0-1 2 1 2l2-1c0-1-2-2-3-1m109 0c-1 1 0 2 2 2l2-1c0-1-3-2-4-1m-104 2c-1 0-1 2 1 2l2-1c0-1-2-2-3-1m100 0c-1 0-1 1 1 2l2-1c0-1-2-2-3-1m-94 1c-2 1-1 3 1 3s2-2 1-3h-2m88 0c-2 1-1 3 1 3l2-1c0-2-1-2-2-2m-85 2c-1 1 0 2 3 2l2-1c0-1-4-2-5-1m77 0c-1 1-1 2 2 2h3v-1c0-1-3-2-5-1m-67 2c-2 1-1 2 2 2s4-1 2-2h-4m60 0h-2c-2 1-1 2 2 2s4-1 2-2h-2m-52 2c-2 1 0 1 6 1h5c0-1-9-2-11-1m38 0c-6 0-4 1 2 1l6-1h-8" fill="#fcebd4"/>
  </symbol>
</defs>
<defs>
  <symbol id="logo-epotek" viewBox="0 0 222 230" fill-rule="evenodd">
    <path d="M113.993 31.367L125.7 9.736l51.087 27.673-11.717 21.63zm53.383 134.13l13.23 20.738-48.978 31.246-13.23-20.738zM.6 86h24.6v58.1H.6z" fill="#2d6dff"/>
    <circle fill="#2e7eff" cx="87.1" cy="86.7" r="86.5"/><circle fill="#2d47fe" cx="87.1" cy="143.3" r="86.5"/><circle fill="#60d0fe" cx="134.9" cy="113" r="86.5"/><circle fill="#2e7eff" cx="87.1" cy="86.7" r="86.5"/><path d="M48.4 113c0 22.7 8.8 43.4 23.1 58.8 5.1.9 10.3 1.4 15.6 1.4 47.8 0 86.5-38.7 86.5-86.5 0-22.7-8.8-43.4-23.1-58.8-5.1-.9-10.3-1.4-15.6-1.4-47.8 0-86.5 38.7-86.5 86.5z" fill="#47a8ff"/>
    <path d="M87.1 56.8C49.2 56.8 17 81.1 5.3 115c11.7 33.9 43.9 58.2 81.8 58.2s70.1-24.3 81.8-58.2C157.2 81.1 125 56.8 87.1 56.8z" fill="#2c62fa"/><path d="M87.1 56.8c-6.8 0-13.5.8-19.8 2.3C55.5 73.9 48.4 92.6 48.4 113c0 47.8 38.7 86.5 86.5 86.5 6.8 0 13.5-.8 19.8-2.3 11.8-14.8 18.9-33.5 18.9-53.9 0-47.8-38.7-86.5-86.5-86.5z" fill="#478dff"/>
    <path d="M83 56.9l-2.4.1c-.3 0-.6 0-.8.1l-3 .3c-.3 0-.6.1-.9.1l-2.2.3c-.4.1-.8.1-1.1.2l-2.2.4c-.3.1-.6.1-.8.2l-2.4.5C55.4 73.9 48.3 92.6 48.3 113c0 22.7 8.8 43.4 23.1 58.8 5.1.9 10.3 1.4 15.6 1.4 37.9 0 70.1-24.3 81.8-58.2-.7-2.1-1.5-4.2-2.4-6.2 0 0 0-.1-.1-.1-.9-2-1.8-4-2.8-5.9 0 0 0-.1-.1-.1-1.5-2.9-3.2-5.7-5.1-8.4l-.1-.1c-1.2-1.8-2.5-3.5-3.8-5.1 0-.1-.1-.1-.1-.2-1.3-1.6-2.7-3.2-4.2-4.8l-.1-.1c-.7-.8-1.5-1.5-2.2-2.3l-.1-.1c-1.5-1.5-3-2.9-4.6-4.2-.1-.1-.2-.2-.3-.2-1.6-1.3-3.2-2.6-4.9-3.8-.1-.1-.2-.2-.3-.2-.8-.6-1.7-1.2-2.5-1.7-.1-.1-.2-.1-.2-.2-.8-.5-1.6-1.1-2.5-1.6-.1 0-.2-.1-.2-.1-.9-.5-1.7-1-2.6-1.5a.76.76 0 0 0-.4-.2c-1.8-1-3.6-1.9-5.4-2.8-.2-.1-.3-.2-.5-.2l-2.7-1.2c-.1 0-.2-.1-.3-.1a27.73 27.73 0 0 0-2.6-1c-.2-.1-.3-.1-.5-.2-.9-.3-1.9-.7-2.8-1-.2-.1-.4-.1-.5-.2-.9-.3-1.8-.6-2.7-.8-.1 0-.2-.1-.2-.1-1-.3-1.9-.5-2.9-.8-.2-.1-.4-.1-.6-.2-1-.2-2-.5-3-.7h-.2c-.9-.2-1.9-.4-2.8-.5-.2 0-.4-.1-.6-.1-1-.2-2-.3-3-.4-.2 0-.4 0-.6-.1l-2.8-.3H94c-1-.1-2-.1-3.1-.2h-.7c-1 0-2.1-.1-3.2-.1s-2.1 0-3.2.1c-.2-.2-.5-.1-.8-.1z" fill="#3c77ff"/>
    <path d="M101.9 60c-29 .7-52.6 24.3-53.3 53.3v1.3c0 30.2 24.5 54.6 54.6 54.6 19.1 0 35.8-9.8 45.6-24.5 2.7-4.1-.3-9.6-5.2-9.6-2.9 0-5.6 1.3-7.3 3.6-7.9 10.8-20.9 17.6-35.4 16.8-19.2-1-35-15.5-38.1-34.1H151c1.6 0 3.1-.6 4.3-1.5l.1-.1c1.5-1.2 2.4-3.1 2.4-5.1v-.1c.1-30.6-25.1-55.3-55.9-54.6zm-39.1 47.8c3.3-19.4 20.1-34.1 40.4-34.1s37.1 14.8 40.4 34.1H62.8z" fill="#fff" fill-rule="nonzero"/>
  </symbol>
</defs>

<defs>
  <symbol id="twitter" viewBox="0 0 32 32">
    <g><path d="M32,30c0,1.104-0.896,2-2,2H2c-1.104,0-2-0.896-2-2V2c0-1.104,0.896-2,2-2h28c1.104,0,2,0.896,2,2V30z" fill="#55ACEE"/><path d="M25.987,9.894c-0.736,0.322-1.525,0.537-2.357,0.635c0.85-0.498,1.5-1.289,1.806-2.231   c-0.792,0.461-1.67,0.797-2.605,0.978C22.083,8.491,21.017,8,19.838,8c-2.266,0-4.1,1.807-4.1,4.038   c0,0.314,0.036,0.625,0.104,0.922c-3.407-0.172-6.429-1.779-8.452-4.221c-0.352,0.597-0.556,1.29-0.556,2.032   c0,1.399,0.726,2.635,1.824,3.36c-0.671-0.022-1.304-0.203-1.856-0.506c-0.001,0.017-0.001,0.034-0.001,0.052   c0,1.955,1.414,3.589,3.29,3.96c-0.343,0.09-0.705,0.142-1.081,0.142c-0.264,0-0.52-0.024-0.77-0.072   c0.52,1.604,2.034,2.771,3.828,2.805C10.67,21.594,8.9,22.24,6.979,22.24c-0.33,0-0.658-0.018-0.979-0.056   c1.814,1.145,3.971,1.813,6.287,1.813c7.541,0,11.666-6.154,11.666-11.491c0-0.173-0.005-0.35-0.012-0.521   C24.741,11.414,25.438,10.703,25.987,9.894z" fill="#FFFFFF"/></g><g/><g/><g/><g/><g/><g/>
  </symbol>
  <symbol id="linkedin" viewBox="0 0 32 32">
    <g><path d="M32,30c0,1.104-0.896,2-2,2H2c-1.104,0-2-0.896-2-2V2c0-1.104,0.896-2,2-2h28c1.104,0,2,0.896,2,2V30z" fill="#007BB5"/><g><rect fill="#FFFFFF" height="14" width="4" x="7" y="11"/><path d="M20.499,11c-2.791,0-3.271,1.018-3.499,2v-2h-4v14h4v-8c0-1.297,0.703-2,2-2c1.266,0,2,0.688,2,2v8h4v-7    C25,14,24.479,11,20.499,11z" fill="#FFFFFF"/><circle cx="9" cy="8" fill="#FFFFFF" r="2"/></g></g><g/><g/><g/><g/><g/><g/>
  </symbol>
  <symbol id="facebook" viewBox="0 0 32 32">
    <g>
    <path style=" stroke:none;fill-rule:nonzero;fill:rgb(23.137255%,34.901961%,59.607843%);fill-opacity:1;" d="M 4 0 L 28 0 C 30.210938 0 32 1.789062 32 4 L 32 28 C 32 30.210938 30.210938 32 28 32 L 4 32 C 1.789062 32 0 30.210938 0 28 L 0 4 C 0 1.789062 1.789062 0 4 0 Z M 4 0 "/>
    <path style=" stroke:none;fill-rule:nonzero;fill:rgb(100%,100%,100%);fill-opacity:1;" d="M 17.933594 28.5 L 17.933594 17.097656 L 21.761719 17.097656 L 22.335938 12.652344 L 17.9375 12.652344 L 17.9375 9.816406 C 17.9375 8.527344 18.292969 7.652344 20.136719 7.652344 L 22.492188 7.652344 L 22.492188 3.675781 C 22.085938 3.621094 20.6875 3.5 19.0625 3.5 C 15.667969 3.5 13.347656 5.570312 13.347656 9.375 L 13.347656 12.652344 L 9.507812 12.652344 L 9.507812 17.097656 L 13.347656 17.097656 L 13.347656 28.5 Z M 17.933594 28.5 "/>
    </g>
  </symbol>
  <symbol id="instagram" viewBox="0 0 32 32">
    <path fill="#f1ebe5" d="M 16.007812 0.242188 C 9.429688 0.242188 7.503906 0.25 7.128906 0.28125 C 5.78125 0.394531 4.9375 0.605469 4.023438 1.0625 C 3.320312 1.410156 2.761719 1.816406 2.214844 2.386719 C 1.214844 3.425781 0.605469 4.703125 0.386719 6.21875 C 0.28125 6.957031 0.25 7.105469 0.242188 10.871094 C 0.242188 12.125 0.242188 13.777344 0.242188 15.992188 C 0.242188 22.566406 0.25 24.488281 0.28125 24.863281 C 0.390625 26.175781 0.597656 27.003906 1.035156 27.90625 C 1.867188 29.636719 3.460938 30.9375 5.335938 31.421875 C 5.988281 31.589844 6.703125 31.683594 7.625 31.726562 C 8.015625 31.742188 11.992188 31.753906 15.972656 31.753906 C 19.953125 31.753906 23.933594 31.75 24.316406 31.730469 C 25.382812 31.679688 26 31.597656 26.6875 31.417969 C 28.574219 30.933594 30.136719 29.652344 30.988281 27.898438 C 31.417969 27.015625 31.632812 26.15625 31.730469 24.910156 C 31.753906 24.640625 31.761719 20.3125 31.761719 15.988281 C 31.761719 11.664062 31.753906 7.34375 31.730469 7.074219 C 31.632812 5.808594 31.414062 4.957031 30.972656 4.054688 C 30.609375 3.320312 30.207031 2.769531 29.625 2.207031 C 28.582031 1.210938 27.308594 0.605469 25.789062 0.386719 C 25.050781 0.28125 24.90625 0.25 21.136719 0.242188 Z M 16.007812 0.242188 "/>
    <path fill="#e221c6" d="M 16.007812 0.242188 C 9.429688 0.242188 7.503906 0.25 7.128906 0.28125 C 5.78125 0.394531 4.9375 0.605469 4.023438 1.0625 C 3.320312 1.410156 2.761719 1.816406 2.214844 2.386719 C 1.214844 3.425781 0.605469 4.703125 0.386719 6.21875 C 0.28125 6.957031 0.25 7.105469 0.242188 10.871094 C 0.242188 12.125 0.242188 13.777344 0.242188 15.992188 C 0.242188 22.566406 0.25 24.488281 0.28125 24.863281 C 0.390625 26.175781 0.597656 27.003906 1.035156 27.90625 C 1.867188 29.636719 3.460938 30.9375 5.335938 31.421875 C 5.988281 31.589844 6.703125 31.683594 7.625 31.726562 C 8.015625 31.742188 11.992188 31.753906 15.972656 31.753906 C 19.953125 31.753906 23.933594 31.75 24.316406 31.730469 C 25.382812 31.679688 26 31.597656 26.6875 31.417969 C 28.574219 30.933594 30.136719 29.652344 30.988281 27.898438 C 31.417969 27.015625 31.632812 26.15625 31.730469 24.910156 C 31.753906 24.640625 31.761719 20.3125 31.761719 15.988281 C 31.761719 11.664062 31.753906 7.34375 31.730469 7.074219 C 31.632812 5.808594 31.414062 4.957031 30.972656 4.054688 C 30.609375 3.320312 30.207031 2.769531 29.625 2.207031 C 28.582031 1.210938 27.308594 0.605469 25.789062 0.386719 C 25.050781 0.28125 24.90625 0.25 21.136719 0.242188 Z M 16.007812 0.242188 "/>
    <path fill="#ffffff" d="M 16 4.363281 C 12.839844 4.363281 12.445312 4.378906 11.203125 4.433594 C 9.964844 4.492188 9.117188 4.6875 8.378906 4.976562 C 7.613281 5.273438 6.964844 5.667969 6.316406 6.316406 C 5.667969 6.964844 5.273438 7.613281 4.972656 8.378906 C 4.6875 9.117188 4.488281 9.964844 4.433594 11.203125 C 4.378906 12.441406 4.363281 12.839844 4.363281 16 C 4.363281 19.160156 4.378906 19.554688 4.433594 20.796875 C 4.492188 22.035156 4.6875 22.882812 4.972656 23.621094 C 5.273438 24.386719 5.667969 25.035156 6.316406 25.683594 C 6.964844 26.328125 7.613281 26.726562 8.378906 27.023438 C 9.117188 27.3125 9.964844 27.507812 11.203125 27.566406 C 12.441406 27.621094 12.839844 27.636719 16 27.636719 C 19.160156 27.636719 19.554688 27.621094 20.796875 27.566406 C 22.035156 27.507812 22.882812 27.3125 23.621094 27.023438 C 24.386719 26.726562 25.035156 26.328125 25.679688 25.683594 C 26.328125 25.035156 26.726562 24.386719 27.023438 23.621094 C 27.308594 22.882812 27.507812 22.035156 27.566406 20.796875 C 27.621094 19.554688 27.636719 19.160156 27.636719 16 C 27.636719 12.839844 27.621094 12.441406 27.566406 11.203125 C 27.507812 9.964844 27.308594 9.117188 27.023438 8.378906 C 26.726562 7.613281 26.328125 6.964844 25.679688 6.316406 C 25.035156 5.667969 24.386719 5.273438 23.621094 4.976562 C 22.878906 4.6875 22.03125 4.492188 20.792969 4.433594 C 19.554688 4.378906 19.15625 4.363281 15.996094 4.363281 Z M 14.957031 6.460938 C 15.265625 6.460938 15.613281 6.460938 16 6.460938 C 19.105469 6.460938 19.476562 6.472656 20.703125 6.527344 C 21.835938 6.578125 22.453125 6.769531 22.863281 6.929688 C 23.40625 7.140625 23.792969 7.390625 24.199219 7.796875 C 24.605469 8.207031 24.859375 8.59375 25.070312 9.136719 C 25.230469 9.546875 25.417969 10.164062 25.472656 11.296875 C 25.527344 12.523438 25.539062 12.890625 25.539062 15.996094 C 25.539062 19.101562 25.527344 19.472656 25.472656 20.699219 C 25.417969 21.832031 25.230469 22.449219 25.070312 22.859375 C 24.859375 23.402344 24.605469 23.789062 24.199219 24.195312 C 23.792969 24.601562 23.40625 24.855469 22.863281 25.066406 C 22.453125 25.226562 21.835938 25.414062 20.703125 25.464844 C 19.476562 25.519531 19.105469 25.535156 16 25.535156 C 12.894531 25.535156 12.523438 25.519531 11.296875 25.464844 C 10.164062 25.414062 9.546875 25.222656 9.136719 25.0625 C 8.59375 24.855469 8.207031 24.601562 7.800781 24.195312 C 7.390625 23.785156 7.140625 23.398438 6.929688 22.855469 C 6.769531 22.445312 6.578125 21.832031 6.527344 20.695312 C 6.472656 19.46875 6.460938 19.101562 6.460938 15.996094 C 6.460938 12.886719 6.472656 12.519531 6.527344 11.292969 C 6.582031 10.160156 6.769531 9.542969 6.929688 9.132812 C 7.140625 8.589844 7.390625 8.203125 7.800781 7.796875 C 8.207031 7.386719 8.59375 7.136719 9.136719 6.925781 C 9.546875 6.765625 10.164062 6.574219 11.296875 6.523438 C 12.371094 6.476562 12.789062 6.460938 14.957031 6.457031 Z M 22.210938 8.394531 C 21.441406 8.394531 20.816406 9.019531 20.816406 9.789062 C 20.816406 10.558594 21.441406 11.183594 22.210938 11.183594 C 22.984375 11.183594 23.609375 10.558594 23.609375 9.789062 C 23.609375 9.019531 22.984375 8.390625 22.210938 8.390625 Z M 16 10.023438 C 12.699219 10.023438 10.023438 12.699219 10.023438 16 C 10.023438 19.300781 12.699219 21.972656 16 21.972656 C 19.300781 21.972656 21.976562 19.300781 21.976562 16 C 21.976562 12.699219 19.300781 10.023438 16 10.023438 Z M 16 12.121094 C 18.140625 12.121094 19.878906 13.859375 19.878906 16 C 19.878906 18.140625 18.140625 19.878906 16 19.878906 C 13.859375 19.878906 12.121094 18.140625 12.121094 16 C 12.121094 13.859375 13.859375 12.121094 16 12.121094 Z M 16 12.121094 "/>
  </symbol>
  <symbol id="youtube" viewBox="0 0 32 32">
    <path style=" stroke:none;fill-rule:nonzero;fill:rgb(100%,0%,0%);fill-opacity:1;" d="M 29.773438 9.054688 C 29.445312 7.8125 28.46875 6.828125 27.230469 6.496094 C 24.992188 5.894531 16 5.894531 16 5.894531 C 16 5.894531 7.007812 5.894531 4.765625 6.496094 C 3.53125 6.828125 2.554688 7.8125 2.226562 9.054688 C 1.625 11.3125 1.625 16.019531 1.625 16.019531 C 1.625 16.019531 1.625 20.730469 2.226562 22.984375 C 2.554688 24.230469 3.53125 25.171875 4.765625 25.503906 C 7.007812 26.109375 16 26.109375 16 26.109375 C 16 26.109375 24.992188 26.109375 27.230469 25.503906 C 28.46875 25.171875 29.445312 24.230469 29.773438 22.984375 C 30.375 20.730469 30.375 16.019531 30.375 16.019531 C 30.375 16.019531 30.375 11.3125 29.773438 9.054688 Z M 29.773438 9.054688 "/>
    <path style=" stroke:none;fill-rule:nonzero;fill:rgb(100%,100%,100%);fill-opacity:1;" d="M 13.058594 20.296875 L 13.058594 11.746094 L 20.574219 16.019531 Z M 13.058594 20.296875 "/>
  </symbol>
</defs>
</svg>
